<svg xmlns="http://www.w3.org/2000/svg" xmlns:xlink="http://www.w3.org/1999/xlink"><defs><symbol fill="none" viewBox="0 0 8 4" id="icon-arrow-up"><g opacity=".4" fill-rule="evenodd" clip-rule="evenodd" fill="currentColor"><path d="M4.892.253A.846.846 0 004.286 0c-.229 0-.444.09-.605.253l-2.656 2.76a.583.583 0 000 .817.566.566 0 00.808 0l2.453-2.555L6.74 3.83a.566.566 0 00.807 0 .583.583 0 000-.817L4.892.253z" /><path d="M4.892.253A.846.846 0 004.286 0c-.229 0-.444.09-.605.253l-2.656 2.76a.583.583 0 000 .817.566.566 0 00.808 0l2.453-2.555L6.74 3.83a.566.566 0 00.807 0 .583.583 0 000-.817L4.892.253z" /></g></symbol></defs></svg>