<svg xmlns="http://www.w3.org/2000/svg" xmlns:xlink="http://www.w3.org/1999/xlink"><defs><symbol fill="none" viewBox="0 0 8 4" id="icon-arrow-up"><g opacity=".4" fill-rule="evenodd" clip-rule="evenodd" fill="currentColor"><path d="M4.892.253A.846.846 0 004.286 0c-.229 0-.444.09-.605.253l-2.656 2.76a.583.583 0 000 .817.566.566 0 00.808 0l2.453-2.555L6.74 3.83a.566.566 0 00.807 0 .583.583 0 000-.817L4.892.253z" /><path d="M4.892.253A.846.846 0 004.286 0c-.229 0-.444.09-.605.253l-2.656 2.76a.583.583 0 000 .817.566.566 0 00.808 0l2.453-2.555L6.74 3.83a.566.566 0 00.807 0 .583.583 0 000-.817L4.892.253z" /></g></symbol><symbol fill="none" viewBox="0 0 40 40" id="icon-button-up"><rect width="40" height="40" rx="20" fill="#95D0A1" /><path fill-rule="evenodd" clip-rule="evenodd" d="M20 40c11.046 0 20-8.954 20-20S31.046 0 20 0 0 8.954 0 20s8.954 20 20 20z" fill="url(#icon-button-up_paint0_linear_35_11)" fill-opacity=".3" /><path d="M20 26.003v-12m0 0l4 4m-4-4l-4 4" stroke="#fff" stroke-width="2" stroke-linecap="round" /><defs></defs></symbol><linearGradient id="icon-button-up_paint0_linear_35_11" x1="-20" y1="20" x2="20" y2="60" gradientUnits="userSpaceOnUse"><stop stop-color="#AEE4B2" /><stop offset="1" stop-color="#95D0A1" /></linearGradient></defs></svg>